HIERARCHY
ROOT Hips
{
	OFFSET -3.958830 18.904000 13.208200
	CHANNELS 6 Xposition Yposition Zposition Zrotation Yrotation Xrotation 
	JOINT LHipJoint
	{
		OFFSET 0.000000 0.000000 0.000000
		CHANNELS 3 Zrotation Yrotation Xrotation
		JOINT LeftUpLeg
		{
			OFFSET 1.800000 -1.400000 0.085000
			CHANNELS 3 Zrotation Yrotation Xrotation
			JOINT LeftLeg
			{
				OFFSET 2.215000 -6.000000 0.000000
				CHANNELS 3 Zrotation Yrotation Xrotation
				JOINT LeftFoot
				{
					OFFSET 2.500000 -6.900000 0.000000
					CHANNELS 3 Zrotation Yrotation Xrotation
					JOINT LeftToeBase
					{
						OFFSET 0.200000 -0.500000 1.950000
						CHANNELS 3 Zrotation Yrotation Xrotation
						End Site
						{
							OFFSET 0.000000 0.000000 0.000000
						}
					}
				}
			}
		}
	}
	JOINT RHipJoint
	{
		OFFSET 0.000000 0.000000 0.000000
		CHANNELS 3 Zrotation Yrotation Xrotation
		JOINT RightUpLeg
		{
			OFFSET -1.800000 -1.400000 0.085000
			CHANNELS 3 Zrotation Yrotation Xrotation
			JOINT RightLeg
			{
				OFFSET -2.215000 -6.000000 0.000000
				CHANNELS 3 Zrotation Yrotation Xrotation
				JOINT RightFoot
				{
					OFFSET -2.500000 -6.900000 0.000000
					CHANNELS 3 Zrotation Yrotation Xrotation
					JOINT RightToeBase
					{
						OFFSET -0.200000 -0.500000 1.950000
						CHANNELS 3 Zrotation Yrotation Xrotation
						End Site
						{
							OFFSET 0.000000 0.000000 0.000000
						}
					}
				}
			}
		}
	}
	JOINT LowerBack
	{
		OFFSET 0.000000 0.000000 0.000000
		CHANNELS 3 Zrotation Yrotation Xrotation
		JOINT Spine
		{
			OFFSET -0.087000 1.940000 -0.288900
			CHANNELS 3 Zrotation Yrotation Xrotation
			JOINT Spine1
			{
				OFFSET 0.000000 1.950000 0.060000
				CHANNELS 3 Zrotation Yrotation Xrotation
				JOINT Neck
				{
					OFFSET 0.000000 0.000000 0.000000
					CHANNELS 3 Zrotation Yrotation Xrotation
					JOINT Neck1
					{
						OFFSET 0.000000 1.600000 0.340000
						CHANNELS 3 Zrotation Yrotation Xrotation
						JOINT Head
						{
							OFFSET 0.000000 1.667000 -0.240000
							CHANNELS 3 Zrotation Yrotation Xrotation
							End Site
							{
								OFFSET 0.000000 0.000000 0.000000
							}
						}
					}
				}
				JOINT LeftShoulder
				{
					OFFSET 0.000000 0.000000 0.000000
					CHANNELS 3 Zrotation Yrotation Xrotation
					JOINT LeftArm
					{
						OFFSET 2.700000 1.550000 -0.730000
						CHANNELS 3 Zrotation Yrotation Xrotation
						JOINT LeftForeArm
						{
							OFFSET 5.450000 0.000000 0.000000
							CHANNELS 3 Zrotation Yrotation Xrotation
							JOINT LeftHand
							{
								OFFSET 3.450000 0.000000 0.000000
								CHANNELS 3 Zrotation Yrotation Xrotation
								JOINT LeftHandIndex1
								{
									OFFSET 0.750000 0.000000 0.000000
									CHANNELS 3 Zrotation Yrotation Xrotation
									End Site
									{
										OFFSET 0.000000 0.000000 0.000000
									}
								}
							}
						}
					}
				}
				JOINT RightShoulder
				{
					OFFSET 0.000000 0.000000 0.000000
					CHANNELS 3 Zrotation Yrotation Xrotation
					JOINT RightArm
					{
						OFFSET -2.700000 1.550000 -0.730000
						CHANNELS 3 Zrotation Yrotation Xrotation
						JOINT RightForeArm
						{
							OFFSET -5.450000 0.000000 0.000000
							CHANNELS 3 Zrotation Yrotation Xrotation
							JOINT RightHand
							{
								OFFSET -3.450000 0.000000 0.000000
								CHANNELS 3 Zrotation Yrotation Xrotation
								JOINT RightHandIndex1
								{
									OFFSET -0.750000 0.000000 0.000000
									CHANNELS 3 Zrotation Yrotation Xrotation
									End Site
									{
										OFFSET 0.000000 0.000000 0.000000
									}
								}
							}
						}
					}
				}
			}
		}
	}
}
MOTION
Frames: 7
Frame Time: 0.016667
1.426710 18.085120 2.074500 3.389076 17.131797 4.548636 -14.999420 13.032346 3.069936 -8.728061 2.389441 2.430136 -0.683228 5.472434 18.788422 0.203069 5.289713 3.133337 -0.826170 -0.993360 -0.921870 18.606459 -10.002537 3.634992 7.653325 4.866474 -29.739416 7.323169 -3.642138 7.014920 0.192443 -1.817625 3.729155 -0.677980 1.203090 0.466590 -4.679346 -2.021206 -7.901305 16.235780 -8.715797 10.196277 -9.377881 -7.372817 8.156683 1.550484 -1.478625 -13.899631 -6.709456 3.346414 52.297772 -1.455750 -1.457530 19.059900 -4.772994 -1.032003 8.536155 -47.926286 13.581260 -16.542959 -16.046869 -66.665220 3.505554 -3.884400 3.107615 0.416620 0.513780 -0.105660 0.285710 0.907915 0.060299 7.871264 60.152544 -6.234984 -25.281736 -19.320292 70.411991 -15.851834 1.828106 -1.104706 -0.390130 0.408420 0.635880 0.395620 
1.446630 18.079000 2.113490 3.090598 16.468008 4.220659 -15.007438 13.059679 3.064623 -8.186927 2.444995 3.036752 -0.977148 5.558325 18.303899 0.183047 5.331488 3.089459 -0.807640 -0.978170 -0.917530 18.602285 -9.984380 3.638531 8.495840 4.864504 -28.599540 6.690571 -3.535475 6.442589 0.161310 -1.801092 3.719430 -0.675630 1.174490 0.505660 -4.642040 -2.089224 -7.910618 16.452793 -8.546550 10.258764 -8.970929 -7.210210 8.489144 1.638707 -1.677878 -14.163212 -7.304543 3.308949 52.757598 -1.877230 -1.654730 17.336100 -4.353742 -1.172387 8.579266 -48.003936 13.330925 -16.397137 -16.808162 -66.437325 3.879194 -3.887446 3.123050 0.449270 0.498880 -0.074320 0.268700 0.387383 0.432051 8.183257 59.600947 -6.391401 -25.193601 -17.880516 71.644316 -15.434793 1.799780 -1.120980 -0.364640 0.394870 0.664120 0.384260 
1.485560 18.064260 2.183120 3.144148 15.594398 4.341465 -15.027878 13.062484 3.073987 -7.993046 2.547260 3.601986 -1.644692 5.748772 17.731486 0.226584 5.380938 3.068002 -0.816050 -0.984370 -0.936460 18.598535 -9.938000 3.606362 9.060508 4.692418 -27.270763 6.203827 -3.374833 5.311093 0.152667 -1.815695 3.720843 -0.691530 1.174890 0.528970 -4.576080 -2.196210 -7.876121 16.262782 -8.481551 9.277136 -8.594110 -7.296885 9.462475 1.718926 -1.996608 -14.652709 -8.030935 3.451232 52.294087 -2.305260 -1.665420 17.537790 -4.517003 -2.032907 9.080711 -48.413252 14.261991 -17.179242 -15.835551 -67.237595 3.124049 -3.878652 3.147311 0.432050 0.505020 -0.071100 0.267830 0.433929 1.608423 8.667829 58.124267 -6.659400 -24.934492 -16.430577 74.266374 -15.636412 1.792681 -1.161353 -0.337780 0.372970 0.675040 0.397290 
1.530580 18.049380 2.250710 2.321031 14.387892 3.579308 -15.003893 13.063693 3.058239 -6.841492 2.653640 5.047226 -2.633219 6.049224 16.566371 0.244094 5.467037 3.038977 -0.787370 -0.938420 -0.930600 18.638446 -9.898744 3.612882 10.506954 4.663263 -25.388238 5.530358 -3.312635 4.935248 0.104545 -1.831499 3.725766 -0.671420 1.157030 0.512110 -4.632984 -2.250895 -7.867674 17.743653 -8.991044 9.601650 -9.164316 -7.658766 9.674759 1.856476 -3.078360 -15.080435 -10.394524 4.548049 52.313365 -1.581290 -2.022880 15.368010 -5.140182 -2.540179 9.423177 -48.047504 15.878502 -17.673361 -17.207717 -68.520417 3.850044 -3.831660 3.124246 0.473860 0.466060 -0.036930 0.277500 0.808255 2.923690 9.044583 55.898297 -6.812031 -23.985729 -11.395877 76.813031 -13.272069 1.806775 -1.211199 -0.338920 0.412970 0.668020 0.400640 
1.591270 18.030750 2.303370 1.044815 13.869988 2.196608 -14.980869 13.118046 3.048126 -5.276185 2.504781 6.480180 -3.287375 6.354339 16.416617 0.301179 5.563442 3.000916 -0.668320 -0.797450 -0.805990 18.649885 -9.897644 3.662089 11.724962 4.601381 -23.370113 5.564334 -3.390762 4.944852 -0.004003 -1.852961 3.720721 -0.624120 1.038770 0.498570 -4.671927 -2.297637 -7.953077 20.276133 -9.709765 11.454069 -9.620085 -7.917600 9.048099 2.546784 -3.620875 -15.383382 -11.856651 4.164677 53.050290 -3.007860 -2.271240 11.065250 -6.977427 -3.217770 9.225127 -46.544247 16.923952 -17.558607 -19.796599 -69.849448 5.589589 -3.727076 3.083109 0.539030 0.370780 0.075240 0.299290 1.292658 4.144937 9.697981 53.323032 -8.408529 -23.627927 -7.341712 80.712292 -11.751121 1.840004 -1.255318 -0.296220 0.438610 0.572470 0.389290 
1.650000 18.008560 2.363850 -0.517665 13.036913 1.086617 -14.973870 13.200941 2.980860 -3.510125 2.168585 7.215166 -3.970174 6.733490 16.894000 0.291030 5.820676 2.903391 -0.709370 -0.867290 -0.840600 18.658385 -9.819068 3.735575 13.188497 4.720232 -21.596463 5.579372 -3.495340 4.791304 -0.034577 -1.920232 3.687304 -0.659410 1.061450 0.515210 -4.666192 -2.492072 -7.962956 23.217019 -10.462034 13.124088 -9.994428 -8.044989 8.020669 2.913360 -4.977684 -15.574545 -15.045877 5.193998 52.321193 -2.066450 -3.471900 8.811920 -9.126513 -3.716745 9.064169 -45.526025 18.063602 -17.461513 -22.105115 -70.698712 6.983434 -3.771421 3.046196 0.587790 0.355860 0.067250 0.257520 2.834437 5.644425 10.160727 49.597779 -10.815333 -22.980371 -0.588271 84.530168 -7.475896 1.845074 -1.285572 -0.310190 0.467690 0.657290 0.377270 
1.688220 17.987660 2.436640 -1.115662 11.935996 0.754050 -14.974127 13.268259 2.954046 -2.664547 1.932197 7.132911 -4.791548 7.140629 17.788275 0.257006 6.072884 2.796521 -0.789820 -0.993040 -0.928000 18.653176 -9.775764 3.772572 13.948845 4.808415 -20.829283 5.337574 -3.642550 5.511549 -0.016055 -1.995685 3.646416 -0.708740 1.121750 0.540760 -4.628014 -2.649147 -7.958461 24.300809 -10.948942 14.606921 -10.158512 -8.052121 6.736724 2.767972 -6.089397 -15.867175 -17.437006 6.733719 50.863079 0.298730 -4.296720 8.703560 -10.110096 -3.742941 9.218658 -45.220385 19.685321 -17.525618 -26.593699 -71.207758 9.792882 -3.836889 3.075026 0.626380 0.374110 0.016820 0.213810 4.208156 6.505223 10.457985 48.093131 -12.047090 -21.934809 10.403014 87.353695 1.260776 1.868532 -1.374399 -0.347610 0.461420 0.769370 0.364060 
